<?xml version="1.0" standalone="no"?>
<!DOCTYPE svg PUBLIC "-//W3C//DTD SVG 20010904//EN"
 "http://www.w3.org/TR/2001/REC-SVG-20010904/DTD/svg10.dtd">
<svg version="1.0" xmlns="http://www.w3.org/2000/svg"
 width="512.000000pt" height="512.000000pt" viewBox="0 0 512.000000 512.000000"
 preserveAspectRatio="xMidYMid meet">
<metadata>
Created by potrace 1.11, written by Peter Selinger 2001-2013
</metadata>
<g transform="translate(0.000000,512.000000) scale(0.100000,-0.100000)"
fill="#000000" stroke="none">
<path d="M1410 3782 c-51 -5 -69 -13 -100 -39 -17 -14 -37 -38 -43 -52 -15
-35 -20 -2190 -5 -2241 14 -46 53 -87 97 -101 26 -9 340 -12 1206 -12 1302 0
1215 -5 1271 69 l29 37 1 1106 c0 739 -3 1114 -10 1131 -14 35 -46 69 -81 88
-27 13 -158 15 -1185 16 -635 1 -1166 0 -1180 -2z m2140 -334 c1 -31 1 -1702
0 -1755 l0 -43 -990 0 -990 0 0 38 c-1 47 -1 1718 0 1755 l0 27 990 0 990 0 0
-22z"/>
<path d="M824 3511 c-32 -14 -82 -78 -89 -113 -3 -18 -5 -407 -3 -865 3 -822
3 -832 24 -859 39 -53 71 -69 134 -69 67 0 102 20 135 76 19 33 20 53 20 879
0 826 -1 846 -20 879 -30 52 -67 74 -127 78 -29 1 -62 -1 -74 -6z"/>
<path d="M4165 3506 c-38 -17 -64 -46 -79 -89 -8 -24 -11 -259 -11 -868 0
-814 1 -835 20 -868 29 -49 67 -73 123 -79 60 -5 118 22 148 71 18 31 19 63
19 888 l0 855 -25 37 c-41 60 -127 83 -195 53z"/>
<path d="M302 3245 c-40 -17 -54 -31 -76 -72 -14 -29 -16 -95 -16 -609 0 -559
1 -579 20 -618 26 -52 57 -75 115 -83 86 -11 158 43 173 130 9 53 7 1111 -2
1152 -20 88 -126 138 -214 100z"/>
<path d="M4674 3235 c-80 -48 -77 -25 -77 -675 0 -531 1 -578 18 -613 27 -58
68 -82 140 -82 69 0 101 18 134 76 21 36 21 49 21 619 l0 583 -25 42 c-43 74
-136 95 -211 50z"/>
</g>
</svg>
